<?xml version="1.0" encoding="UTF-8"?>
<svg id="_图层_2" data-name="图层 2" xmlns="http://www.w3.org/2000/svg" width="219.21mm" height="216.94mm" viewBox="0 0 621.4 614.95">
  <defs>
    <style>
      .cls-1 {
        fill: #231815;
        stroke-width: 0px;
      }
    </style>
  </defs>
  <g id="_图层_1-2" data-name="图层 1">
    <g>
      <path class="cls-1" d="M327.87,29.43c-16.41,1.48-32.46,5.74-47,13.59-13.27,7.16-24.93,17.12-34.43,28.8-19.8,24.31-30.69,54.83-36.28,85.37-2.88,15.77-4.43,31.79-4.79,47.81s.08,32.24,2.92,48.01c5.34,29.61,19.84,57.17,41.88,77.74,20.9,19.51,47.61,32.33,75.69,37.41,29.13,5.28,59.6,2.49,87.23-8.2,32.11-12.43,63-35.52,77.92-67.2,8.73-18.54,12.01-39.34,8.75-59.62-2.88-17.91-13.61-35.24-30.76-42.45-39.63-16.66-78.92,16.45-97.96,48.63-18.05,30.51-34.71,62.42-47.23,95.62-6.18,16.39-11.46,33.43-13.22,50.93-1.69,16.86,1.79,32.95,10.36,47.62,9.67,16.57,24.13,30.07,39.91,40.75,15.85,10.74,34.32,20.11,53.45,22.82,10.56,1.49,21.38,1.22,31.78-1.28,5.37-1.29,10.6-3.21,15.53-5.71,3.61-1.83,6.94-4.17,10.56-5.96.79-.39,3.41-1.85,4.26-.97,1.03,1.05.61,5.81.64,7.21.11,4.87-.25,9.75-1.05,14.55-1.67,10.05-4.95,19.82-9.31,29.01-8.67,18.29-21.4,35.08-37.22,47.78-12.92,10.37-28.17,17.31-44.1,21.6-35.63,9.59-73.87,7.54-110.08,2.8-37.72-4.93-74.82-13.68-111.67-22.93-18.53-4.65-37.07-9.23-55.37-14.75-22.43-6.76-45.63-14.4-65.87-26.42-14.29-8.49-26.84-20.62-32.93-36.36-6.95-17.96-4.61-36.82.16-55,11.19-42.65,35.11-81.99,66.72-112.62,31.34-30.36,72.54-51.02,115.86-56.88,23.31-3.15,46.75-1.5,69.66,3.6,24.58,5.47,48.23,14.36,71.6,23.6,38.53,15.24,76.04,33.34,112.01,53.92,29.33,16.78,59.32,36.34,79.9,63.68,9.5,12.61,16.67,27,19.19,42.69,1.17,7.3,2.32,16.7-.71,23.64-2.28,5.23-9.12,13.61-15.22,8.23-3.55-3.13-4.69-8.4-7.11-12.35-2.5-4.08-5.65-7.81-9.26-10.96-7.76-6.77-17.02-10.4-27.11-12.03-12.2-1.97-24.58-1.57-36.88-.88-12.99.74-25.98,1.41-38.96,2.13s-26.55,1.47-39.82,2.2c-12.93.71-25.92,1.84-38.87,2.1-2.59.05-7.07.22-8.87-2.15-1.59-2.1-.22-5.56.65-7.67,1.85-4.51,4.58-8.77,7.07-12.94,2.89-4.85,5.94-9.61,9.13-14.26,25.33-36.88,59.47-66.96,95.14-93.52,8.92-6.64,17.97-13.09,27.12-19.41,4.72-3.26,9.39-6.89,14.37-9.73,3.76-2.14,7.83-2.53,11.01.76s4.54,8.26,5.96,12.63c1.91,5.83,3.52,11.75,4.88,17.73,2.77,12.2,4.49,24.61,5.53,37.06,1.05,12.44,1.45,24.93,1.57,37.42.06,6.06.06,12.11.03,18.17-.02,4.45-.39,9.41,1.98,13.41,4.49,7.59,13.18,3.75,19.18.54,7.58-4.06,14.87-8.68,21.77-13.82,26.16-19.49,46.31-46.08,58.36-76.37,11.85-29.77,15.53-62.55,10.87-94.23s-18.71-63.22-39.97-88.2c-26.88-31.58-66.29-54.54-107.52-60.52-17.23-2.5-36.03-5.61-52.93.25-8.06,2.8-15.29,7.8-20.15,14.88-5.41,7.88-9.96,16.34-13.7,25.14-14.86,35-17.56,76.59-2.55,112.01,7.58,17.89,19.54,33.44,35.88,44.14s35.77,16.27,55.02,19.2c19.89,3.03,40.56,4.18,60.66,3.15,21.42-1.09,41.67-6.82,57.92-21.34,27.02-24.14,34.17-62.53,31.96-97.19-1.14-17.9-4.66-35.92-9.39-53.21-4.88-17.83-11.77-35.13-20.45-51.44-17.17-32.27-41.68-61.05-72.27-81.3S453.87-.35,418.01.61c-3.21.09-3.22,5.09,0,5,37.19-.99,73.23,10.63,103.49,32.12,29.95,21.27,53.4,51.05,69.4,83.95,8.08,16.61,14.25,34.15,18.38,52.15s7.04,35.18,7.12,53.15c.14,35.44-11.48,73.67-44.19,92.1-19.4,10.93-42.68,11.05-64.32,10.33-19.56-.65-39.27-2.36-58.18-7.7-18.85-5.32-36.83-14.66-49.73-29.7-12.5-14.57-20.06-33.14-23.39-51.91s-2.39-38.77,2.02-57.51c2.21-9.39,5.27-18.61,9.24-27.4,3.75-8.32,8.15-17.54,14.24-24.42,12.37-13.98,32.54-14.1,49.71-12.38,20.42,2.05,40.23,6.57,59.02,14.98,35.24,15.77,64.8,42.81,82.83,77,14.97,28.38,21.48,60.8,19.35,92.77-2.12,31.74-12.87,62.78-31.05,88.9-9.29,13.34-20.55,25.31-33.25,35.45-6.71,5.36-13.86,10.17-21.31,14.44-5.12,2.94-16.03,10.69-17.9.68-1.04-5.56-.22-11.81-.23-17.46-.01-6.25-.07-12.51-.22-18.76-.3-12.27-.96-24.53-2.34-36.73-1.34-11.9-3.33-23.75-6.36-35.35-1.47-5.61-3.1-11.26-5.12-16.7-1.4-3.78-3.3-7.63-6.42-10.3-7.85-6.72-16.34-.53-23.29,4.2-9.17,6.25-18.27,12.61-27.25,19.14-17.84,12.99-35.22,26.65-51.54,41.51s-31.29,30.65-44.54,48.08c-6.54,8.6-12.59,17.56-18.04,26.89-3.43,5.87-9.63,14.22-7.75,21.54,1.75,6.84,10.27,7.25,15.98,6.95,13.18-.68,26.36-1.44,39.53-2.16,25.84-1.43,51.69-2.84,77.53-4.26,21.82-1.2,47.55-2.23,63.39,15.56,3.4,3.82,5.69,8.1,7.79,12.71,1.64,3.59,4.09,7.11,7.79,8.78,6.5,2.93,13.04-1.47,16.87-6.6,4.98-6.68,5.5-14.35,5.14-22.4s-1.74-15.38-4.13-22.72c-4.9-15.04-13.65-28.49-24.05-40.3-22.39-25.4-51.93-43.97-81.28-60.28-36.96-20.54-75.26-38.48-114.67-53.8-23.06-8.96-46.54-17.24-70.91-21.88-22-4.19-44.3-4.99-66.47-1.71-42.49,6.27-82.71,26.49-113.95,55.84-31.44,29.53-55.53,67.85-67.98,109.17-5.46,18.13-9.42,37.31-5.14,56.12,3.62,15.93,13.07,29.76,25.68,39.98,16.03,12.99,36.19,20.8,55.42,27.68,20.7,7.41,41.92,13.14,63.22,18.52,35.23,8.89,70.51,17.77,106.37,23.78,36.9,6.19,75.03,10.04,112.3,4.82,16.34-2.29,32.51-6.56,47.33-13.9,16.07-7.96,29.87-19.81,41.02-33.79,12.5-15.68,22.42-34.06,26.74-53.76,2.01-9.14,2.79-18.61,1.62-27.92-1.23-9.81-12.86-2.83-17.33-.17-18.78,11.17-42.05,12.78-62.71,6.1-17.88-5.78-35.02-15.69-49.48-27.62s-27.48-27.12-33.51-45.21c-5.13-15.39-3.63-31.42-.07-46.99,8.23-36.06,25.35-70.14,42.9-102.45,8.12-14.95,16.09-30.26,27.22-43.24,12.92-15.06,29.92-28.34,50.01-31.48,9.91-1.55,20.95-.46,30.07,3.88,8.36,3.98,14.99,10.74,19.52,18.74,9.83,17.34,9.69,39.82,4.7,58.64-9.55,36.03-39.17,62.68-72.08,77.98-26.71,12.42-56.9,16.96-86.1,13.2-28.07-3.61-55.33-15.09-76.84-33.6-22.63-19.49-37.85-46.03-43.93-75.23-3.23-15.53-3.78-31.6-3.58-47.42.21-16.05,1.56-32.1,4.34-47.92,5.32-30.24,15.71-60.9,35.32-84.98,19.53-23.99,47.14-38.16,77.89-40.92,3.18-.29,3.21-5.29,0-5h0Z"/>
      <path class="cls-1" d="M418.78.01c-14.65,1.68-29.32,3.25-43.96,5-12.33,1.47-25.94,3.28-34.36,13.46-2.07,2.5-3.62,5.39-5.7,7.87-1.63,1.95-3.63,3.58-6.24,3.9-1.34.17-2.5,1.03-2.5,2.5,0,1.22,1.15,2.67,2.5,2.5,2.95-.37,5.49-1.39,7.77-3.33,2.04-1.74,3.57-4,5.03-6.22,1.67-2.54,3.53-4.96,5.82-6.96,2.16-1.89,4.8-3.36,7.45-4.44,5.62-2.29,11.76-3.24,17.76-3.98,7.24-.89,14.49-1.7,21.73-2.51,8.23-.92,16.47-1.83,24.7-2.78,1.34-.15,2.5-1.04,2.5-2.5,0-1.23-1.15-2.66-2.5-2.5h0Z"/>
    </g>
  </g>
</svg>